<svg width="59" height="58" viewBox="0 0 59 58" fill="none" xmlns="http://www.w3.org/2000/svg">
<g id="flash (1) 1">
<g id="Group">
<g id="Group_2">
<g id="Group_3">
<path id="Vector" d="M48.0209 21.3531C47.7389 20.7656 47.1448 20.3906 46.491 20.3906H35.6452L44.6125 2.45922C44.8747 1.93314 44.8481 1.30761 44.5395 0.806449C44.2276 0.305293 43.68 0 43.0925 0H22.7019C21.995 0 21.3611 0.439758 21.1122 1.10189L10.9169 28.2894C10.721 28.8121 10.7941 29.3963 11.1094 29.8541C11.428 30.3121 11.949 30.5859 12.5066 30.5859H23.9232L17.654 55.8892C17.4615 56.6642 17.8332 57.4689 18.55 57.8241C19.2647 58.1764 20.1294 57.9871 20.6309 57.3628L47.8184 23.1519C48.2268 22.6407 48.3064 21.9421 48.0209 21.3531Z" fill="url(#paint0_linear_5303_20467)"/>
</g>
</g>
</g>
</g>
<defs>
<linearGradient id="paint0_linear_5303_20467" x1="29.4996" y1="57.9999" x2="29.4996" y2="0" gradientUnits="userSpaceOnUse">
<stop stop-color="#FD5900"/>
<stop offset="1" stop-color="#FFDE00"/>
</linearGradient>
</defs>
</svg>
