<svg width="26" height="26" viewBox="0 0 26 26" fill="none" xmlns="http://www.w3.org/2000/svg">
<g clip-path="url(#clip0_54_53)">
<path d="M5.7135 10.2917C6.83838 10.2917 7.938 10.6252 8.87331 11.2502C9.80861 11.8751 10.5376 12.7634 10.9681 13.8027C11.3985 14.8419 11.5112 15.9855 11.2917 17.0888C11.0723 18.192 10.5306 19.2054 9.73517 20.0008C8.93976 20.7963 7.92634 21.3379 6.82308 21.5574C5.71981 21.7768 4.57624 21.6642 3.53699 21.2337C2.49773 20.8033 1.60947 20.0743 0.984517 19.139C0.359566 18.2037 0.026 17.1041 0.026 15.9792L0 15.1667C0 12.1498 1.19843 9.25656 3.33166 7.12333C5.46489 4.99011 8.35816 3.79167 11.375 3.79167V7.04167C10.3075 7.0388 9.2501 7.24758 8.26383 7.65592C7.27756 8.06426 6.38202 8.66408 5.629 9.42067C5.33633 9.71279 5.06634 10.0268 4.82138 10.3599C5.11225 10.3144 5.40963 10.29 5.71188 10.29L5.7135 10.2917ZM20.3385 10.2917C21.4634 10.2917 22.563 10.6252 23.4983 11.2502C24.4336 11.8751 25.1626 12.7634 25.5931 13.8027C26.0235 14.8419 26.1362 15.9855 25.9167 17.0888C25.6973 18.192 25.1556 19.2054 24.3602 20.0008C23.5648 20.7963 22.5513 21.3379 21.4481 21.5574C20.3448 21.7768 19.2012 21.6642 18.162 21.2337C17.1227 20.8033 16.2345 20.0743 15.6095 19.139C14.9846 18.2037 14.651 17.1041 14.651 15.9792L14.625 15.1667C14.625 12.1498 15.8234 9.25656 17.9567 7.12333C20.0899 4.99011 22.9832 3.79167 26 3.79167V7.04167C24.9325 7.0388 23.8751 7.24758 22.8888 7.65592C21.9026 8.06426 21.007 8.66408 20.254 9.42067C19.9613 9.71279 19.6913 10.0268 19.4464 10.3599C19.7373 10.3144 20.0346 10.29 20.3385 10.29V10.2917Z" fill="black" fill-opacity="0.8"/>
</g>
<defs>
<clipPath id="clip0_54_53">
<rect width="26" height="26" fill="white"/>
</clipPath>
</defs>
</svg>
